REM DIRINDEX 1\5,1\2\6,1\2\7,1\3\8,1\3\9,1\4\10,1\4\11,1\4\12
REM DIRNAME cjc026,folder01,folder02,folder03,folder04,folder05,folder06,folder07,folder08,folder09,folder10,folder11
TITLE ""
FILE "EJE_DB3000_5th_6C_44.mp3" MP3
  TRACK 01 AUDIO
    TITLE "0:"
    INDEX 01 00:00:00
  TRACK 02 AUDIO
    TITLE "10:cjc026_11859"
    INDEX 01 00:00:08
  TRACK 03 AUDIO
    TITLE "0:"
    INDEX 01 00:01:41
  TRACK 04 AUDIO
    TITLE "11:cjc026_11860"
    INDEX 01 00:02:03
  TRACK 05 AUDIO
    TITLE "0:"
    INDEX 01 00:03:23
  TRACK 06 AUDIO
    TITLE "12:cjc026_11861"
    INDEX 01 00:03:58
  TRACK 07 AUDIO
    TITLE "0:"
    INDEX 01 00:05:16
  TRACK 08 AUDIO
    TITLE "10:cjc026_11862"
    INDEX 01 00:05:54
  TRACK 09 AUDIO
    TITLE "0:"
    INDEX 01 00:07:04
  TRACK 10 AUDIO
    TITLE "11:cjc026_11863"
    INDEX 01 00:07:39
  TRACK 11 AUDIO
    TITLE "0:"
    INDEX 01 00:08:48
  TRACK 12 AUDIO
    TITLE "12:cjc026_11864"
    INDEX 01 00:09:08
  TRACK 13 AUDIO
    TITLE "0:"
    INDEX 01 00:10:33
  TRACK 14 AUDIO
    TITLE "10:cjc026_11865"
    INDEX 01 00:10:68
  TRACK 15 AUDIO
    TITLE "0:"
    INDEX 01 00:12:04
  TRACK 16 AUDIO
    TITLE "11:cjc026_11866"
    INDEX 01 00:12:42
  TRACK 17 AUDIO
    TITLE "0:"
    INDEX 01 00:13:48
  TRACK 18 AUDIO
    TITLE "12:cjc026_11867"
    INDEX 01 00:14:08
  TRACK 19 AUDIO
    TITLE "0:"
    INDEX 01 00:15:19
  TRACK 20 AUDIO
    TITLE "10:cjc026_11868"
    INDEX 01 00:15:57
  TRACK 21 AUDIO
    TITLE "0:"
    INDEX 01 00:17:04
  TRACK 22 AUDIO
    TITLE "11:cjc026_11869"
    INDEX 01 00:17:42
  TRACK 23 AUDIO
    TITLE "0:"
    INDEX 01 00:19:05
  TRACK 24 AUDIO
    TITLE "12:cjc026_11870"
    INDEX 01 00:19:41
  TRACK 25 AUDIO
    TITLE "0:"
    INDEX 01 00:20:63
  TRACK 26 AUDIO
    TITLE "10:cjc026_11871"
    INDEX 01 00:21:26
  TRACK 27 AUDIO
    TITLE "0:"
    INDEX 01 00:22:42
  TRACK 28 AUDIO
    TITLE "11:cjc026_11872"
    INDEX 01 00:23:05
  TRACK 29 AUDIO
    TITLE "0:"
    INDEX 01 00:24:25
  TRACK 30 AUDIO
    TITLE "12:cjc026_11873"
    INDEX 01 00:24:63
  TRACK 31 AUDIO
    TITLE "0:"
    INDEX 01 00:26:02
  TRACK 32 AUDIO
    TITLE "10:cjc026_11874"
    INDEX 01 00:26:39
  TRACK 33 AUDIO
    TITLE "0:"
    INDEX 01 00:27:56
  TRACK 34 AUDIO
    TITLE "11:cjc026_11875"
    INDEX 01 00:28:14
  TRACK 35 AUDIO
    TITLE "0:"
    INDEX 01 00:29:39
  TRACK 36 AUDIO
    TITLE "12:cjc026_11876"
    INDEX 01 00:29:74
  TRACK 37 AUDIO
    TITLE "0:"
    INDEX 01 00:31:13
  TRACK 38 AUDIO
    TITLE "10:cjc026_11877"
    INDEX 01 00:31:48
  TRACK 39 AUDIO
    TITLE "0:"
    INDEX 01 00:33:03
  TRACK 40 AUDIO
    TITLE "11:cjc026_11878"
    INDEX 01 00:33:35
  TRACK 41 AUDIO
    TITLE "0:"
    INDEX 01 00:34:52
  TRACK 42 AUDIO
    TITLE "12:cjc026_11879"
    INDEX 01 00:35:07
  TRACK 43 AUDIO
    TITLE "0:"
    INDEX 01 00:36:43
  TRACK 44 AUDIO
    TITLE "10:cjc026_11880"
    INDEX 01 00:37:00
  TRACK 45 AUDIO
    TITLE "0:"
    INDEX 01 00:38:39
  TRACK 46 AUDIO
    TITLE "11:cjc026_11881"
    INDEX 01 00:38:71
  TRACK 47 AUDIO
    TITLE "0:"
    INDEX 01 00:40:18
  TRACK 48 AUDIO
    TITLE "12:cjc026_11882"
    INDEX 01 00:40:51
  TRACK 49 AUDIO
    TITLE "0:"
    INDEX 01 00:42:14
  TRACK 50 AUDIO
    TITLE "10:cjc026_11883"
    INDEX 01 00:42:46
  TRACK 51 AUDIO
    TITLE "0:"
    INDEX 01 00:43:60
  TRACK 52 AUDIO
    TITLE "11:cjc026_11884"
    INDEX 01 00:44:23
  TRACK 53 AUDIO
    TITLE "0:"
    INDEX 01 00:45:54
  TRACK 54 AUDIO
    TITLE "12:cjc026_11885"
    INDEX 01 00:46:14
  TRACK 55 AUDIO
    TITLE "0:"
    INDEX 01 00:47:28
  TRACK 56 AUDIO
    TITLE "10:cjc026_11886"
    INDEX 01 00:47:71
  TRACK 57 AUDIO
    TITLE "0:"
    INDEX 01 00:49:07
  TRACK 58 AUDIO
    TITLE "11:cjc026_11887"
    INDEX 01 00:49:42
  TRACK 59 AUDIO
    TITLE "0:"
    INDEX 01 00:50:70
  TRACK 60 AUDIO
    TITLE "12:cjc026_11888"
    INDEX 01 00:51:36
  TRACK 61 AUDIO
    TITLE "0:"
    INDEX 01 00:52:47
  TRACK 62 AUDIO
    TITLE "10:cjc026_11889"
    INDEX 01 00:53:07
  TRACK 63 AUDIO
    TITLE "0:"
    INDEX 01 00:54:29
  TRACK 64 AUDIO
    TITLE "11:cjc026_11890"
    INDEX 01 00:54:67
  TRACK 65 AUDIO
    TITLE "0:"
    INDEX 01 00:56:28
  TRACK 66 AUDIO
    TITLE "12:cjc026_11891"
    INDEX 01 00:56:63
  TRACK 67 AUDIO
    TITLE "0:"
    INDEX 01 00:58:07
  TRACK 68 AUDIO
    TITLE "10:cjc026_11892"
    INDEX 01 00:58:45
  TRACK 69 AUDIO
    TITLE "0:"
    INDEX 01 00:59:57
  TRACK 70 AUDIO
    TITLE "11:cjc026_11893"
    INDEX 01 01:00:17
  TRACK 71 AUDIO
    TITLE "0:"
    INDEX 01 01:01:66
  TRACK 72 AUDIO
    TITLE "12:cjc026_11894"
    INDEX 01 01:02:26
  TRACK 73 AUDIO
    TITLE "0:"
    INDEX 01 01:03:37
  TRACK 74 AUDIO
    TITLE "10:cjc026_11895"
    INDEX 01 01:03:72
  TRACK 75 AUDIO
    TITLE "0:"
    INDEX 01 01:05:22
  TRACK 76 AUDIO
    TITLE "11:cjc026_11896"
    INDEX 01 01:05:57
  TRACK 77 AUDIO
    TITLE "0:"
    INDEX 01 01:07:13
  TRACK 78 AUDIO
    TITLE "12:cjc026_11897"
    INDEX 01 01:07:48
  TRACK 79 AUDIO
    TITLE "0:"
    INDEX 01 01:08:73
